<svg width="179" height="53" viewBox="0 0 179 53" fill="none" xmlns="http://www.w3.org/2000/svg">
<g clip-path="url(#clip0_2_2)">
<path d="M14.125 43H2.78125V11H14.2187C17.4375 11 20.2083 11.6406 22.5313 12.9219C24.8542 14.1927 26.6406 16.0208 27.8906 18.4062C29.151 20.7917 29.7813 23.6458 29.7813 26.9687C29.7813 30.3021 29.151 33.1667 27.8906 35.5625C26.6406 37.9583 24.8438 39.7969 22.5 41.0781C20.1667 42.3594 17.375 43 14.125 43ZM9.54688 37.2031H13.8438C15.8438 37.2031 17.526 36.849 18.8906 36.1406C20.2656 35.4219 21.2969 34.3125 21.9844 32.8125C22.6823 31.3021 23.0312 29.3542 23.0312 26.9687C23.0312 24.6042 22.6823 22.6719 21.9844 21.1719C21.2969 19.6719 20.2708 18.5677 18.9062 17.8594C17.5417 17.151 15.8594 16.7969 13.8594 16.7969H9.54688V37.2031ZM45.6055 43.4688C43.1367 43.4688 41.0117 42.9688 39.2305 41.9688C37.4596 40.9583 36.0951 39.5312 35.1367 37.6875C34.1784 35.8333 33.6992 33.6406 33.6992 31.1094C33.6992 28.6406 34.1784 26.474 35.1367 24.6094C36.0951 22.7448 37.444 21.2917 39.1836 20.25C40.9336 19.2083 42.9857 18.6875 45.3398 18.6875C46.9232 18.6875 48.3971 18.9427 49.7617 19.4531C51.1367 19.9531 52.3346 20.7083 53.3555 21.7187C54.3867 22.7292 55.1888 24 55.7617 25.5312C56.3346 27.0521 56.6211 28.8333 56.6211 30.875V32.7031H36.3555V28.5781H50.3555C50.3555 27.6198 50.1471 26.7708 49.7305 26.0313C49.3138 25.2917 48.7357 24.7135 47.9961 24.2969C47.2669 23.8698 46.418 23.6562 45.4492 23.6562C44.4388 23.6562 43.543 23.8906 42.7617 24.3594C41.9909 24.8177 41.3867 25.4375 40.9492 26.2187C40.5117 26.9896 40.2878 27.849 40.2773 28.7969V32.7187C40.2773 33.9062 40.4961 34.9323 40.9336 35.7969C41.3815 36.6615 42.0117 37.3281 42.8242 37.7969C43.6367 38.2656 44.6003 38.5 45.7148 38.5C46.4544 38.5 47.1315 38.3958 47.7461 38.1875C48.3607 37.9792 48.8867 37.6667 49.3242 37.25C49.7617 36.8333 50.0951 36.3229 50.3242 35.7188L56.4805 36.125C56.168 37.6042 55.5273 38.8958 54.5586 40C53.6003 41.0937 52.3607 41.9479 50.8398 42.5625C49.3294 43.1667 47.5846 43.4688 45.6055 43.4688ZM67.6211 11V43H60.9648V11H67.6211ZM72.9531 43V19H79.6094V43H72.9531ZM76.2969 15.9062C75.3073 15.9062 74.4583 15.5781 73.75 14.9219C73.0521 14.2552 72.7031 13.4583 72.7031 12.5312C72.7031 11.6146 73.0521 10.8281 73.75 10.1719C74.4583 9.50521 75.3073 9.17187 76.2969 9.17187C77.2865 9.17187 78.1302 9.50521 78.8281 10.1719C79.5365 10.8281 79.8906 11.6146 79.8906 12.5312C79.8906 13.4583 79.5365 14.2552 78.8281 14.9219C78.1302 15.5781 77.2865 15.9062 76.2969 15.9062ZM107.316 19L98.9258 43H91.4258L83.0352 19H90.0664L95.0508 36.1719H95.3008L100.27 19H107.316ZM120.887 43.4688C118.418 43.4688 116.293 42.9688 114.512 41.9688C112.741 40.9583 111.376 39.5312 110.418 37.6875C109.46 35.8333 108.98 33.6406 108.98 31.1094C108.98 28.6406 109.46 26.474 110.418 24.6094C111.376 22.7448 112.725 21.2917 114.465 20.25C116.215 19.2083 118.267 18.6875 120.621 18.6875C122.204 18.6875 123.678 18.9427 125.043 19.4531C126.418 19.9531 127.616 20.7083 128.637 21.7187C129.668 22.7292 130.47 24 131.043 25.5312C131.616 27.0521 131.902 28.8333 131.902 30.875V32.7031H111.637V28.5781H125.637C125.637 27.6198 125.428 26.7708 125.012 26.0313C124.595 25.2917 124.017 24.7135 123.277 24.2969C122.548 23.8698 121.699 23.6562 120.73 23.6562C119.72 23.6562 118.824 23.8906 118.043 24.3594C117.272 24.8177 116.668 25.4375 116.23 26.2187C115.793 26.9896 115.569 27.849 115.559 28.7969V32.7187C115.559 33.9062 115.777 34.9323 116.215 35.7969C116.663 36.6615 117.293 37.3281 118.105 37.7969C118.918 38.2656 119.882 38.5 120.996 38.5C121.736 38.5 122.413 38.3958 123.027 38.1875C123.642 37.9792 124.168 37.6667 124.605 37.25C125.043 36.8333 125.376 36.3229 125.605 35.7188L131.762 36.125C131.449 37.6042 130.809 38.8958 129.84 40C128.882 41.0937 127.642 41.9479 126.121 42.5625C124.611 43.1667 122.866 43.4688 120.887 43.4688ZM136.246 43V19H142.699V23.1875H142.949C143.387 21.6979 144.121 20.5729 145.152 19.8125C146.184 19.0417 147.371 18.6562 148.715 18.6562C149.048 18.6562 149.408 18.6771 149.793 18.7187C150.178 18.7604 150.517 18.8177 150.809 18.8906V24.7969C150.496 24.7031 150.064 24.6198 149.512 24.5469C148.96 24.474 148.454 24.4375 147.996 24.4375C147.017 24.4375 146.142 24.651 145.371 25.0781C144.611 25.4948 144.007 26.0781 143.559 26.8281C143.121 27.5781 142.902 28.4427 142.902 29.4219V43H136.246ZM159.09 52C158.246 52 157.454 51.9323 156.715 51.7969C155.986 51.6719 155.382 51.5104 154.902 51.3125L156.402 46.3438C157.184 46.5833 157.887 46.7135 158.512 46.7344C159.147 46.7552 159.694 46.6094 160.152 46.2969C160.621 45.9844 161.001 45.4531 161.293 44.7031L161.684 43.6875L153.074 19H160.074L165.043 36.625H165.293L170.309 19H177.355L168.027 45.5938C167.579 46.8854 166.97 48.0104 166.199 48.9687C165.439 49.9375 164.475 50.6823 163.309 51.2031C162.142 51.7344 160.736 52 159.09 52Z" fill="#F87171"/>
</g>
<defs>
<clipPath id="clip0_2_2">
<rect width="179" height="53" fill="white"/>
</clipPath>
</defs>
</svg>
