<svg width="48" height="48" viewBox="0 0 48 48" fill="none" xmlns="http://www.w3.org/2000/svg">
<path d="M24 42C21.5 42 19.1583 41.525 16.975 40.575C14.7917 39.625 12.8917 38.3417 11.275 36.725C9.65833 35.1083 8.375 33.2083 7.425 31.025C6.475 28.8417 6 26.5 6 24C6 21.5 6.475 19.1583 7.425 16.975C8.375 14.7917 9.65833 12.8917 11.275 11.275C12.8917 9.65833 14.7917 8.375 16.975 7.425C19.1583 6.475 21.5 6 24 6C26.7333 6 29.325 6.58333 31.775 7.75C34.225 8.91667 36.3 10.5667 38 12.7V8H42V20H30V16H35.5C34.1333 14.1333 32.45 12.6667 30.45 11.6C28.45 10.5333 26.3 10 24 10C20.1 10 16.7917 11.3583 14.075 14.075C11.3583 16.7917 10 20.1 10 24C10 27.9 11.3583 31.2083 14.075 33.925C16.7917 36.6417 20.1 38 24 38C27.5 38 30.5583 36.8667 33.175 34.6C35.7917 32.3333 37.3333 29.4667 37.8 26H41.9C41.4 30.5667 39.4417 34.375 36.025 37.425C32.6083 40.475 28.6 42 24 42Z" fill="#F87171"/>
</svg>
